<svg width="878" height="186" viewBox="0 0 878 186" fill="none" xmlns="http://www.w3.org/2000/svg">
<path d="M741.01 142.16H768.95C768.95 142.16 768.75 93 768.95 76.59C769.06 67.89 783.3 67.89 783.14 76.59C783.08 79.91 783.14 89.43 783.14 89.43H772.78V110.83H783.14V142.15H811.3V79.37C811.3 73.29 809.74 67.3 806.51 62.15C801.65 54.39 792.44 44.96 776.15 43.91C756.93 42.68 747.57 56.56 743.57 65.5C741.83 69.39 741 73.61 741 77.88V142.16H741.01Z" fill="#1B2A4A"/>
<path d="M469.85 73.8C471.33 73.81 472.86 73.79 474.36 73.91L478.31 74.22V46.39H472.43C456.61 46.39 444.89 48.96 436.57 54.24C422.77 63.09 415.17 76.88 415.17 93.06C415.17 109.08 422.97 123.28 436.58 132C444.89 137.27 456.61 139.84 472.43 139.84H478.31V112.01L474.36 112.32C472.86 112.44 471.37 112.45 469.85 112.43C452.98 112.43 444.43 105.91 444.43 93.06C444.43 77.13 458.26 73.8 469.85 73.8Z" fill="#1B2A4A"/>
<path d="M262.52 142.16L262.53 97.33L285.36 134.19C288.44 139.17 293.89 142.21 299.75 142.16C305.84 142.1 312.46 139.94 313.07 131.03V44.88H282.82V85.08L260.48 49.53C258.39 46.21 254.85 44.03 250.93 43.88C244.27 43.62 234.76 45.57 233.05 58.28V142.17H262.52V142.16Z" fill="#1B2A4A"/>
<path d="M331.5 142.16H359.44C359.44 142.16 359.24 93 359.44 76.59C359.55 67.89 373.79 67.89 373.63 76.59C373.57 79.91 373.63 89.43 373.63 89.43H363.27V110.83H373.63V142.15H401.79V79.37C401.79 73.29 400.23 67.3 397 62.15C392.14 54.39 382.93 44.96 366.64 43.91C347.42 42.68 338.06 56.56 334.06 65.5C332.32 69.39 331.49 73.61 331.49 77.88V142.16H331.5Z" fill="#1B2A4A"/>
<path d="M672.03 142.16L672.04 97.33L694.87 134.19C697.95 139.17 703.4 142.21 709.26 142.16C715.35 142.1 721.97 139.94 722.58 131.03V44.88H692.33V85.08L669.99 49.53C667.9 46.21 664.36 44.03 660.44 43.88C653.78 43.62 644.27 45.57 642.56 58.28V142.17H672.03V142.16Z" fill="#1B2A4A"/>
<path d="M824.75 44.67H856.48V111.05C856.48 112.29 857.46 113.31 858.7 113.36L877.25 114.11L877.23 142.35H849.44C835.8 142.35 824.75 131.3 824.75 117.66V44.67Z" fill="#1B2A4A"/>
<path d="M581.26 43.06C553.7 43.06 531.27 65.49 531.27 93.05C531.27 120.61 553.7 142.95 581.26 142.95C608.82 142.95 631.15 120.61 631.15 93.05C631.15 65.49 608.82 43.06 581.26 43.06ZM601.31 95.79C600.03 106.87 590.05 114.83 578.97 113.55C567.89 112.27 559.93 102.29 561.21 91.21C562.4 80.13 572.38 72.17 583.46 73.45C594.54 74.74 602.5 84.71 601.31 95.79Z" fill="#1B2A4A"/>
<path d="M523.71 44.67H491.7V142.16H523.71V44.67Z" fill="#1B2A4A"/>
<path d="M0.75 0.100006L90.81 185.9H150.93L64.92 0.100006H0.75Z" fill="#E73947"/>
<path d="M75.84 0.100006L165.9 185.9H226.03L140.01 0.100006H75.84Z" fill="#1B2A4A"/>
</svg>
