<svg width="40" height="40" viewBox="0 0 40 40" fill="none" xmlns="http://www.w3.org/2000/svg">
<rect width="40" height="40" rx="20" fill="#58C8C9"/>
<path d="M31.0542 16.3379L29.0242 17.0212L27.007 15.8675L29.0237 14.7137L31.054 15.3967C31.095 15.4104 31.1365 15.4168 31.1774 15.4168C31.3385 15.4168 31.4892 15.3148 31.5436 15.1539C31.6118 14.9518 31.5028 14.7327 31.3008 14.6646L29.9213 14.2004L31.1776 13.482C31.3627 13.3762 31.427 13.1404 31.3211 12.9548C31.2153 12.77 30.9791 12.705 30.7939 12.8113L29.5382 13.5297L29.8371 12.1057C29.8809 11.8966 29.7469 11.6923 29.5384 11.6484C29.3295 11.6028 29.125 11.7382 29.0811 11.9469L28.6413 14.043L26.616 15.2016V12.7953L28.2167 11.3726C28.376 11.2307 28.3906 10.9868 28.2489 10.8275C28.107 10.6677 27.8629 10.6535 27.7036 10.7954L26.616 11.7621V10.3146C26.616 10.1014 26.443 9.92847 26.2298 9.92847C26.0165 9.92847 25.8437 10.1014 25.8437 10.3146V11.7621L24.7559 10.7954C24.5962 10.6535 24.3522 10.6677 24.2107 10.8275C24.0691 10.9868 24.0831 11.2309 24.2426 11.3726L25.8439 12.7953V15.2014L23.8189 14.043L23.3784 11.9469C23.3346 11.7379 23.1295 11.603 22.9211 11.6484C22.7123 11.6923 22.579 11.8972 22.6226 12.1057L22.9219 13.5297L21.6661 12.8113C21.481 12.7047 21.245 12.7697 21.139 12.9548C21.0329 13.1402 21.0973 13.376 21.2825 13.482L22.5388 14.2004L21.1589 14.6646C20.9569 14.7325 20.8479 14.9515 20.9161 15.1539C20.9703 15.315 21.1208 15.4168 21.2823 15.4168C21.3231 15.4168 21.3644 15.4104 21.4053 15.3967L23.4366 14.7139L25.4531 15.8674L23.4364 17.021L21.4055 16.338C21.2031 16.2703 20.9844 16.3789 20.9166 16.5808C20.8484 16.7828 20.9574 17.002 21.1595 17.07L22.5393 17.5343L21.283 18.2527C21.0979 18.3585 21.0336 18.5943 21.1395 18.7798C21.2108 18.9041 21.3412 18.9742 21.475 18.9742C21.5402 18.9742 21.6061 18.958 21.6667 18.9232L22.9224 18.2048L22.6232 19.6286C22.5794 19.8375 22.713 20.0421 22.9217 20.0859C22.9484 20.0916 22.9752 20.0941 23.0014 20.0941C23.1803 20.0941 23.3407 19.9695 23.3791 19.7876L23.8197 17.6915L25.8446 16.5334V18.7922L24.2433 20.2155C24.084 20.3574 24.0698 20.6015 24.2114 20.7608C24.2875 20.8464 24.3937 20.8903 24.5002 20.8903C24.5912 20.8903 24.683 20.8581 24.7566 20.7927L25.8444 19.8256V21.2728C25.8444 21.486 26.0172 21.659 26.2306 21.659C26.4438 21.659 26.6167 21.486 26.6167 21.2728V19.8258L27.7043 20.7929C27.8636 20.9348 28.1077 20.9204 28.2496 20.7609C28.3911 20.6016 28.3767 20.3576 28.2174 20.2157L26.6167 18.7924V16.5334L28.6417 17.6918L29.0817 19.7879C29.1197 19.9696 29.2801 20.0945 29.4594 20.0945C29.4856 20.0945 29.5123 20.092 29.5391 20.0862C29.7482 20.0424 29.8816 19.8378 29.8378 19.6289L29.5389 18.2051L30.7947 18.9235C30.8552 18.9583 30.9211 18.9745 30.9863 18.9745C31.1201 18.9745 31.2505 18.9046 31.3218 18.7802C31.4279 18.5948 31.3634 18.359 31.1783 18.253L29.9226 17.5346L31.3015 17.0704C31.5035 17.0021 31.6126 16.7834 31.5443 16.5811C31.4752 16.3785 31.2566 16.2706 31.0542 16.3378L31.0542 16.3379Z" fill="#FBFFFF"/>
<path d="M15.6629 20.2432C14.379 20.5884 12.8815 21.093 12.3939 21.4463C11.4273 22.1469 11.2085 23.4998 11.9063 24.4628C12.3097 25.0194 12.9628 25.3522 13.653 25.3522C14.1116 25.3522 14.5514 25.2092 14.9244 24.9393C15.5016 24.5206 16.5586 22.9849 16.8689 22.5239C16.8949 22.4854 16.9177 22.4502 16.9425 22.4134C17.1783 22.5074 17.4354 22.5607 17.7049 22.5607C17.9704 22.5607 18.2238 22.5086 18.4567 22.417C18.4805 22.4526 18.5031 22.4865 18.5279 22.5237C18.8379 22.9845 19.8949 24.5205 20.4724 24.9391C20.8454 25.2094 21.2852 25.352 21.7437 25.352H21.7439C22.4339 25.352 23.0869 25.0194 23.4907 24.4624C24.1882 23.4998 23.9693 22.1467 23.0027 21.4461C22.5165 21.0939 21.0282 20.5921 19.7473 20.2468C19.6773 19.6792 19.3768 19.1845 18.942 18.8569C18.9759 18.7667 19.0102 18.6758 19.0463 18.5765C19.2376 18.0551 19.861 16.2979 19.861 15.5852C19.861 14.3912 18.8937 13.4203 17.7048 13.4203C16.5155 13.4203 15.548 14.3912 15.548 15.5852C15.548 16.3023 16.1677 18.0559 16.3578 18.5762C16.3946 18.677 16.4291 18.7691 16.4634 18.8601C16.032 19.1874 15.7339 19.6795 15.6629 20.2432L15.6629 20.2432ZM14.4715 24.3136C14.231 24.4876 13.9479 24.5797 13.653 24.5797C13.2096 24.5797 12.7902 24.3665 12.5318 24.0095C12.0841 23.3915 12.2256 22.5226 12.8475 22.072C13.2263 21.7976 14.5492 21.3552 15.7173 21.0327C15.8175 21.4075 16.0196 21.74 16.2935 21.9984C15.6393 22.9768 14.8479 24.0408 14.4714 24.3136L14.4715 24.3136ZM19.6922 21.0352C20.8549 21.3575 22.1719 21.7983 22.5495 22.0718C23.1713 22.5224 23.313 23.3913 22.8655 24.009C22.6065 24.3664 22.1869 24.5795 21.7438 24.5795C21.4488 24.5794 21.1659 24.4874 20.9254 24.3134C20.5497 24.0409 19.7615 22.9822 19.1084 22.0054C19.3857 21.7469 19.5906 21.4127 19.6921 21.0352L19.6922 21.0352ZM16.3204 15.5851C16.3204 14.8173 16.9415 14.1926 17.7047 14.1926C18.4678 14.1926 19.0887 14.8173 19.0887 15.5851C19.0887 16.0637 18.6683 17.3902 18.2473 18.5155C18.0743 18.4681 17.8928 18.4408 17.7047 18.4408C17.5152 18.4408 17.3322 18.4683 17.1577 18.5164C16.7385 17.3945 16.3204 16.0699 16.3204 15.585V15.5851ZM17.7047 19.2133C18.4145 19.2133 18.9921 19.7908 18.9921 20.5006C18.9921 21.2104 18.4145 21.788 17.7047 21.788C16.9949 21.788 16.4174 21.2104 16.4174 20.5006C16.4174 19.7908 16.9949 19.2133 17.7047 19.2133Z" fill="#FBFFFF"/>
<path d="M26.3146 22.3033C26.1251 22.3033 25.9678 22.4404 25.9353 22.6205L25.9336 22.6203C24.9897 26.2834 21.6583 28.9978 17.7047 28.9978C13.0196 28.9978 9.20812 25.1862 9.20812 20.5012C9.20812 15.8162 13.0197 12.0047 17.7047 12.0047C18.6285 12.0047 19.5174 12.1548 20.3505 12.4286L20.3507 12.4278C20.3934 12.444 20.4392 12.4541 20.4874 12.4541C20.7007 12.4541 20.8555 12.2802 20.8735 12.0679C20.8938 11.8326 20.6178 11.7023 20.6178 11.7023C19.7011 11.3987 18.7228 11.2324 17.7045 11.2324C12.5859 11.2324 8.43555 15.3826 8.43555 20.5014C8.43555 25.6205 12.5857 29.7704 17.7045 29.7704C22.038 29.7704 25.676 26.7962 26.6907 22.7786C26.6907 22.7786 26.7002 22.7204 26.7002 22.6901C26.7008 22.4765 26.5276 22.3036 26.3145 22.3036L26.3146 22.3033Z" fill="#FBFFFF"/>
</svg>
