<svg width="40" height="40" viewBox="0 0 40 40" fill="none" xmlns="http://www.w3.org/2000/svg">
<rect width="40" height="40" rx="20" fill="#717579"/>
<path d="M25.9 16.4911C25.9 14.1696 24.6615 12.0245 22.651 10.8637C20.6406 9.703 18.1638 9.703 16.1533 10.8637C14.1427 12.0243 12.9043 14.1694 12.9043 16.4911C12.9043 18.2956 13.8608 20.0163 14.628 21.3986C15.0629 22.1781 15.4727 22.9174 15.5193 23.3554H15.5196C15.5118 23.41 15.5118 23.4653 15.5196 23.5199V26.0545C15.5196 27.4416 16.2597 28.7233 17.4608 29.4168C18.6619 30.1104 20.1422 30.1104 21.3433 29.4168C22.5445 28.7233 23.2846 27.4416 23.2846 26.0545V23.5199C23.2924 23.4653 23.2924 23.41 23.2846 23.3554C23.3312 22.9176 23.7411 22.1783 24.1759 21.3986C24.9431 20.0163 25.8998 18.2956 25.8998 16.4911H25.9ZM14.147 16.4911H14.1468C14.1468 14.6135 15.1486 12.8785 16.7747 11.9397C18.4007 11.0009 20.4039 11.0009 22.0299 11.9397C23.6559 12.8785 24.6578 14.6135 24.6578 16.4911C24.6578 17.9759 23.8254 19.473 23.0892 20.7961C22.6078 21.6625 22.1977 22.4203 22.0735 23.0727C21.2619 23.5396 20.3385 23.7768 19.4024 23.7591C18.4662 23.7769 17.5428 23.5396 16.7312 23.0727C16.6164 22.411 16.1969 21.6532 15.7155 20.7867C14.9795 19.4729 14.1469 17.9758 14.1469 16.4911H14.147ZM19.4023 28.6944C18.7023 28.6935 18.0313 28.4151 17.5364 27.9203C17.0413 27.4252 16.763 26.7542 16.7621 26.0544V24.5014C18.455 25.1889 20.3495 25.1889 22.0425 24.5014V26.0544C22.0416 26.7542 21.7632 27.4252 21.2681 27.9203C20.7733 28.4151 20.1023 28.6935 19.4022 28.6944H19.4023Z" fill="#0F1214"/>
<path d="M17.7562 19.0348C17.6475 19.5784 17.5014 20.094 17.399 20.4666C17.3214 20.7401 17.2529 20.976 17.2157 21.1563C17.1455 21.4925 17.361 21.8221 17.6973 21.8923C18.0333 21.9627 18.3631 21.7471 18.4333 21.4109C18.4613 21.2711 18.5234 21.0536 18.5947 20.8051C18.7251 20.336 18.8835 19.7677 19.0016 19.1682H19.4923C19.6104 19.7677 19.7688 20.336 19.8992 20.8051C19.9707 21.0536 20.0327 21.2709 20.0606 21.4109H20.0608C20.1222 21.7036 20.3832 21.9111 20.682 21.9049C20.7245 21.9092 20.7671 21.9092 20.8094 21.9049C21.1359 21.8234 21.3383 21.4971 21.2661 21.1687C21.2288 20.9886 21.1606 20.7525 21.0828 20.479C20.9803 20.1064 20.8343 19.5907 20.7255 19.0472V19.0474C21.1233 18.9659 21.4916 18.7787 21.7917 18.5053C22.0918 18.2319 22.3126 17.8826 22.4309 17.4943C22.5507 17.1046 22.5448 16.6871 22.4144 16.3008C22.284 15.9145 22.0355 15.579 21.7039 15.3418C21.4526 15.1928 21.1582 15.1343 20.8689 15.1754C20.5797 15.2166 20.3132 15.3553 20.1137 15.5684C19.4925 16.1649 19.2999 17.0313 19.3309 17.9383H19.1383C19.1693 17.0313 18.9892 16.1647 18.3555 15.5684H18.3557C18.156 15.3553 17.8895 15.2166 17.6005 15.1754C17.3112 15.1343 17.0168 15.1928 16.7655 15.3418C16.4385 15.5799 16.1941 15.914 16.0661 16.2975C15.9381 16.6812 15.9329 17.095 16.0509 17.4818C16.1692 17.8702 16.39 18.2195 16.6901 18.4929C16.9901 18.7661 17.3585 18.9533 17.7562 19.0347L17.7562 19.0348ZM20.9741 16.463C21.0042 16.4357 21.0362 16.4108 21.0702 16.3885C21.2533 16.5673 21.3279 16.8298 21.2661 17.0782C21.2286 17.2478 21.1454 17.4042 21.0254 17.5301C20.9056 17.656 20.7535 17.7468 20.5858 17.7925C20.5765 17.2396 20.6759 16.7551 20.9741 16.4754V16.463ZM17.4116 16.3885C17.4536 16.4035 17.4911 16.4292 17.5201 16.463C17.8308 16.7425 17.9177 17.2272 17.9084 17.7799C17.7422 17.7352 17.5914 17.6464 17.4716 17.5227C17.3518 17.3992 17.2677 17.2456 17.2283 17.0781C17.1754 16.8359 17.2439 16.5833 17.4116 16.4008V16.3885Z" fill="#0F1214"/>
</svg>
