<svg width="40" height="40" viewBox="0 0 40 40" fill="none" xmlns="http://www.w3.org/2000/svg">
<rect width="40" height="40" rx="20" fill="#717579"/>
<path d="M27.1719 14.4183C27.3072 14.4183 27.4158 14.3085 27.4158 14.1743C27.4158 14.0389 27.3074 13.9304 27.1719 13.9304H26.2901V12.4878H27.1719C27.3072 12.4878 27.4158 12.3781 27.4158 12.2439C27.4158 12.1097 27.3073 12 27.1719 12H12.2439C12.1085 12 12 12.1097 12 12.2439C12 12.3781 12.1086 12.4878 12.2439 12.4878H25.8024V13.9305L12.2439 13.9304C12.1086 13.9304 12 14.0388 12 14.1744C12 14.3084 12.1086 14.4183 12.2439 14.4183H25.8024V15.861H12.2439C12.1086 15.861 12 15.9696 12 16.1049C12 16.2391 12.1086 16.3488 12.2439 16.3488H25.8024V17.7915L12.2439 17.7914C12.1086 17.7914 12 17.8998 12 18.0353C12 18.1695 12.1086 18.2793 12.2439 18.2793H25.8024V19.722H12.2439C12.1086 19.722 12 19.8303 12 19.9659C12 20.0999 12.1086 20.2098 12.2439 20.2098H25.8024V21.6525L12.2439 21.6524C12.1086 21.6524 12 21.761 12 21.8963C12 22.0305 12.1086 22.1402 12.2439 22.1402H25.8024V25.6437C25.3828 25.7524 25.0731 26.134 25.0731 26.5864V27.7561C25.0731 27.8903 25.1814 28 25.317 28H26.7754C26.9096 28 27.0194 27.8903 27.0194 27.7561V26.5864C27.0194 26.1339 26.7097 25.7524 26.2901 25.6437L26.2902 22.1402H27.172C27.3073 22.1402 27.4159 22.0305 27.4159 21.8963C27.4159 21.761 27.3075 21.6524 27.172 21.6524H26.2902V20.2098H27.172C27.3073 20.2098 27.4159 20.1001 27.4159 19.9659C27.4159 19.8305 27.3075 19.722 27.172 19.722H26.2902V18.2793H27.172C27.3073 18.2793 27.4159 18.1695 27.4159 18.0353C27.4159 17.8999 27.3075 17.7914 27.172 17.7914H26.2902V16.3487H27.172C27.3073 16.3487 27.4159 16.239 27.4159 16.1048C27.4159 15.9695 27.3075 15.8609 27.172 15.8609H26.2902V14.4182L27.1719 14.4183ZM26.5316 26.5865V27.5123H25.561V26.5865C25.561 26.3196 25.778 26.1012 26.0464 26.1012C26.3134 26.1013 26.5316 26.3196 26.5316 26.5865Z" fill="#FBFFFF"/>
</svg>
