<svg width="40" height="40" viewBox="0 0 40 40" fill="none" xmlns="http://www.w3.org/2000/svg">
<rect width="40" height="40" rx="20" fill="#FFEC70"/>
<path d="M19.924 28.7984C18.0127 28.798 16.1659 28.1068 14.7239 26.8522C13.2818 25.5979 12.3417 23.8644 12.0768 21.9717C11.8118 20.0789 12.2399 18.154 13.282 16.5518C14.3241 14.9496 15.9102 13.778 17.7477 13.2529C17.931 13.2006 18.1283 13.2502 18.2652 13.3828C18.4019 13.5155 18.4577 13.711 18.4113 13.8958C18.3648 14.0807 18.2233 14.2268 18.0401 14.279C16.4494 14.7333 15.0765 15.7473 14.1744 17.134C13.2723 18.5207 12.9018 20.1866 13.1312 21.825C13.3606 23.4632 14.1744 24.9634 15.4226 26.049C16.6708 27.1346 18.2693 27.7325 19.9236 27.7325C21.5778 27.7325 23.1763 27.1346 24.4246 26.049C25.6728 24.9633 26.4867 23.4631 26.716 21.825C26.9454 20.1866 26.575 18.5207 25.673 17.134C24.7708 15.7473 23.398 14.7333 21.8072 14.279C21.6239 14.2268 21.4825 14.0807 21.436 13.8958C21.3895 13.711 21.4452 13.5155 21.5821 13.3828C21.719 13.2502 21.9163 13.2006 22.0995 13.2529C23.9373 13.778 25.5232 14.9496 26.5655 16.5518C27.6077 18.1541 28.0357 20.0791 27.7706 21.9717C27.5057 23.8645 26.5656 25.5981 25.1237 26.8522C23.6816 28.1068 21.8349 28.798 19.9235 28.7984H19.924Z" fill="#0F1214"/>
<path d="M19.9239 17.5877C19.7825 17.5877 19.6468 17.5316 19.5468 17.4315C19.4467 17.3315 19.3906 17.1958 19.3906 17.0544V11.5333C19.3906 11.3428 19.4923 11.1668 19.6573 11.0714C19.8223 10.9762 20.0256 10.9762 20.1906 11.0714C20.3556 11.1668 20.4572 11.3428 20.4572 11.5333V17.0544C20.4572 17.1958 20.401 17.3315 20.3011 17.4315C20.201 17.5316 20.0654 17.5877 19.9239 17.5877H19.9239Z" fill="#0F1214"/>
</svg>
