<svg width="40" height="40" viewBox="0 0 40 40" fill="none" xmlns="http://www.w3.org/2000/svg">
<rect width="40" height="40" rx="20" fill="#717579"/>
<path d="M18.5035 17.4718C18.0545 14.9378 18.0553 13.0135 18.5192 11.6872C19.2619 9.56394 20.6814 8.3335 22.0888 8.3335C23.4269 8.3335 24.0412 9.28767 23.9 10.9851C23.7735 12.5061 23.061 14.7273 21.7641 17.6657C21.992 17.8524 22.1897 18.0747 22.349 18.3241C24.8829 17.875 26.8069 17.8758 28.1336 18.3398C30.2569 19.0824 31.4873 20.5019 31.4873 21.9093C31.4873 23.2475 30.5332 23.8617 28.8357 23.7205C27.3147 23.5941 25.0936 22.8816 22.1551 21.5846C21.9684 21.8125 21.7461 22.0103 21.4968 22.1694C21.9458 24.7034 21.945 26.6277 21.4811 27.954C20.7384 30.0773 19.3189 31.3077 17.9115 31.3077C16.5734 31.3077 15.9591 30.3535 16.1003 28.6561C16.2267 27.1351 16.9392 24.914 18.2362 21.9755C18.0083 21.7888 17.8105 21.5665 17.6512 21.3172C15.1174 21.7662 13.1934 21.7654 11.8666 21.3015C9.74338 20.5588 8.51294 19.1393 8.51294 17.7319C8.51294 16.3938 9.46711 15.7795 11.1645 15.9207C12.6855 16.0471 14.9067 16.7596 17.8452 18.0566C18.0319 17.8287 18.2541 17.6309 18.5035 17.4718ZM20.0001 17.0357C20.4094 17.0357 20.8062 17.1244 21.1679 17.2917C22.41 14.4651 23.0889 12.3382 23.2062 10.9274C23.3173 9.59193 22.9553 9.02959 22.0888 9.02959C21.0078 9.02959 19.8288 10.0515 19.1764 11.9171C18.77 13.0786 18.7595 14.8318 19.1569 17.1659C19.4268 17.0803 19.7104 17.0359 20.0002 17.0359L20.0001 17.0357ZM22.7849 19.8205C22.7849 20.2298 22.6963 20.6266 22.529 20.9883C25.3556 22.2304 27.4824 22.9093 28.8933 23.0266C30.2287 23.1377 30.791 22.7757 30.791 21.9092C30.791 20.8282 29.7691 19.6492 27.9035 18.9968C26.742 18.5904 24.9888 18.5799 22.6547 18.9773C22.7403 19.2472 22.7847 19.5308 22.7847 19.8206L22.7849 19.8205ZM20.0001 22.6053C19.5908 22.6053 19.194 22.5167 18.8323 22.3494C17.5902 25.1759 16.9113 27.3028 16.794 28.7137C16.683 30.0491 17.045 30.6114 17.9115 30.6114C18.9924 30.6114 20.1714 29.5895 20.8238 27.7239C21.2302 26.5624 21.2408 24.8092 20.8433 22.4751C20.5735 22.5607 20.2898 22.6051 20.0001 22.6051L20.0001 22.6053ZM17.2153 19.8205C17.2153 19.4112 17.304 19.0144 17.4713 18.6527C14.6447 17.4106 12.5178 16.7317 11.107 16.6144C9.77154 16.5033 9.2092 16.8654 9.2092 17.7319C9.2092 18.8128 10.2311 19.9918 12.0967 20.6442C13.2582 21.0506 15.0115 21.0612 17.3455 20.6637C17.26 20.3939 17.2156 20.1102 17.2156 19.8205L17.2153 19.8205ZM20.0001 21.9091C21.1536 21.9091 22.0887 20.974 22.0887 19.8205C22.0887 18.667 21.1536 17.7319 20.0001 17.7319C18.8466 17.7319 17.9115 18.667 17.9115 19.8205C17.9115 20.974 18.8466 21.9091 20.0001 21.9091Z" fill="#0F1214"/>
</svg>
